<?xml version="1.0" encoding="UTF-8"?>
<!-- Generator: visioncortex VTracer 0.6.3 -->
<svg version="1.1" xmlns="http://www.w3.org/2000/svg" width="1280" height="496">
<path d="M0 0 C422.4 0 844.8 0 1280 0 C1280 163.68 1280 327.36 1280 496 C857.6 496 435.2 496 0 496 C0 332.32 0 168.64 0 0 Z " fill="#020429" transform="translate(0,0)"/>
<path d="M0 0 C1.32 0.01 1.32 0.01 2.66 0.02 C15.33 0.1 27.77 0.3 40.12 3.38 C41.53 3.72 41.53 3.72 42.96 4.08 C67.47 10.32 89.55 20.22 109.12 36.38 C109.71 36.86 110.3 37.35 110.91 37.85 C121.73 46.84 131.58 56.14 140.12 67.38 C140.53 67.89 140.93 68.41 141.35 68.94 C162.11 95.53 177.8 128.34 179.91 162.4 C179.92 164.38 179.92 164.38 181.12 165.38 C181.23 166.79 181.27 168.21 181.29 169.62 C181.3 170.53 181.31 171.44 181.32 172.37 C181.32 173.86 181.32 173.86 181.33 175.38 C181.33 176.4 181.34 177.42 181.35 178.48 C181.35 180.66 181.36 182.84 181.37 185.02 C181.37 188.31 181.41 191.59 181.44 194.87 C181.5 207.09 180.78 218.43 178.12 230.38 C177.85 231.7 177.59 233.02 177.32 234.34 C172.18 259.92 161.39 285.85 145.12 306.38 C143.67 308.37 142.21 310.37 140.75 312.38 C134.05 321.27 126.71 329.29 118.12 336.38 C117.16 337.19 116.2 338.01 115.21 338.85 C106.59 346.14 98.17 352.15 88.12 357.38 C87.52 357.69 86.92 358 86.31 358.33 C76.79 363.28 67.15 367.57 57.12 371.38 C89.36 379.74 122.1 385.93 152.34 368.77 C156.96 365.98 160.74 362.59 164.12 358.38 C167.12 359.38 167.12 359.38 168.32 361.25 C168.7 362.06 169.08 362.87 169.48 363.7 C169.91 364.61 170.34 365.52 170.78 366.45 C171.23 367.42 171.67 368.38 172.12 369.38 C172.56 370.31 173 371.25 173.44 372.22 C174.81 375.18 176.16 378.15 177.5 381.12 C181.08 389.01 184.75 396.81 188.79 404.47 C190.34 407.83 191.51 410.71 192.12 414.38 C190.77 417.45 190.77 417.45 188.5 420.5 C188.09 421.05 187.68 421.6 187.26 422.17 C171.95 442.38 151.92 458.76 126.12 462.38 C93.63 465.38 65.96 455.03 36.69 442.12 C8.51 429.88 -21.73 422.54 -51.49 433.42 C-59.43 436.59 -66.86 440.21 -72.88 446.38 C-75.82 446.47 -76.88 445.37 -79.07 443.43 C-82.88 439.54 -85.77 434.97 -88.75 430.44 C-89.36 429.56 -89.96 428.68 -90.59 427.77 C-91.15 426.91 -91.72 426.05 -92.3 425.16 C-92.82 424.39 -93.34 423.61 -93.87 422.81 C-95.22 419.52 -94.91 417.75 -93.88 414.38 C-92.08 411.98 -92.08 411.98 -89.75 409.7 C-88.47 408.42 -88.47 408.42 -87.17 407.13 C-86.27 406.26 -85.37 405.39 -84.44 404.5 C-83.57 403.64 -82.71 402.78 -81.81 401.89 C-73.96 394.18 -65.92 386.96 -56.06 381.94 C-55.12 381.43 -55.12 381.43 -54.16 380.92 C-50.76 379.14 -47.68 377.89 -43.88 377.38 C-44.21 376.38 -44.53 375.39 -44.88 374.38 C-46.8 373.48 -46.8 373.48 -49.2 372.94 C-50.57 372.56 -50.57 372.56 -51.97 372.18 C-53.47 371.78 -53.47 371.78 -55 371.38 C-99.6 358.61 -136.31 326.66 -158.61 286.48 C-167.25 270.63 -172.85 254.93 -176.88 237.38 C-177.18 236.12 -177.18 236.12 -177.49 234.83 C-178 232.69 -178.44 230.54 -178.88 228.38 C-179.04 227.57 -179.21 226.77 -179.38 225.95 C-181.28 215.58 -181.25 205.23 -181.25 194.72 C-181.25 191.54 -181.29 188.36 -181.32 185.18 C-181.48 157.26 -175.5 130.7 -163.88 105.38 C-163.59 104.74 -163.3 104.1 -163.01 103.44 C-158.42 93.28 -152.41 84.36 -145.88 75.38 C-144.96 74.11 -144.96 74.11 -144.04 72.82 C-138.84 65.89 -132.83 59.65 -126.88 53.38 C-126.05 52.49 -125.22 51.61 -124.37 50.71 C-103.41 28.99 -76.51 13.55 -47.5 5.69 C-46.81 5.5 -46.11 5.31 -45.4 5.11 C-30.29 1.22 -15.55 -0.15 0 0 Z " fill="#FAFCFC" transform="translate(193.875,19.625)"/>
<path d="M0 0 C22.11 18.58 31.74 44.09 36.32 71.95 C36.6 73.59 36.6 73.59 36.89 75.27 C40.45 105.55 34.46 139.33 15.7 163.95 C14.58 165.29 13.46 166.63 12.32 167.95 C11.89 168.54 11.46 169.13 11.01 169.73 C0.64 183.31 -18.32 191.22 -34.73 193.64 C-62.17 196.56 -90.16 193.5 -112.44 175.75 C-114.94 173.55 -117.32 171.3 -119.68 168.95 C-120.23 168.41 -120.78 167.87 -121.35 167.32 C-126.6 161.71 -130.13 154.72 -133.68 147.95 C-134.15 147.05 -134.63 146.15 -135.12 145.22 C-149.24 115.16 -148.05 75.33 -137.4 44.53 C-130.26 25.02 -117.26 4.25 -97.88 -4.96 C-96.57 -5.54 -95.25 -6.11 -93.93 -6.67 C-93.23 -6.97 -92.53 -7.27 -91.8 -7.58 C-86.2 -9.93 -80.63 -11.78 -74.68 -13.05 C-73.79 -13.25 -72.91 -13.45 -72 -13.66 C-48.55 -18.39 -19.4 -14.75 0 0 Z " fill="#020429" transform="translate(247.67578125,119.046875)"/>
<path d="M0 0 C1.92 0 1.92 0 3.89 0 C13.5 0.13 21.81 1.14 30.88 4.38 C31.8 4.68 32.72 4.98 33.66 5.29 C53.12 12.24 65.67 27.75 74.69 45.62 C79.26 56.32 81.47 68.79 81.88 80.38 C81.93 81.38 81.98 82.38 82.03 83.41 C82.44 98.09 80.59 113.79 74.88 127.38 C74.59 128.07 74.31 128.77 74.01 129.48 C66.62 145.76 53.58 157.59 37.88 165.38 C37.06 165.8 36.24 166.22 35.39 166.65 C14.61 176.16 -13.54 174.33 -34.45 166.91 C-44.76 162.59 -53.25 156.21 -61.12 148.38 C-61.82 147.71 -62.52 147.05 -63.24 146.37 C-79.15 130.12 -82.4 106.49 -82.37 84.75 C-82.06 60.37 -75.55 37.97 -58.19 20.23 C-42.61 5.19 -21.07 -0.03 0 0 Z " fill="#FAFCFC" transform="translate(675.125,255.625)"/>
<path d="M0 0 C0.94 0.3 1.89 0.6 2.86 0.91 C9.18 3.13 14 6.61 19 11 C19.91 11.77 19.91 11.77 20.84 12.55 C34.66 25.15 40.31 43.77 41.19 61.89 C41.27 65.83 41.27 69.75 41.25 73.69 C41.26 75.04 41.26 76.4 41.27 77.76 C41.27 79.04 41.27 80.32 41.27 81.64 C41.26 82.79 41.26 83.94 41.26 85.13 C41 88 41 88 39 91 C37.08 91.38 37.08 91.38 34.7 91.4 C33.79 91.41 32.89 91.42 31.96 91.44 C30.97 91.44 29.97 91.43 28.95 91.43 C27.91 91.44 26.86 91.45 25.79 91.46 C22.32 91.49 18.86 91.5 15.4 91.51 C13 91.53 10.61 91.55 8.21 91.57 C1.89 91.61 -4.42 91.64 -10.74 91.67 C-17.18 91.7 -23.62 91.75 -30.06 91.79 C-42.71 91.88 -55.35 91.95 -68 92 C-70.2 98.6 -66.02 109.21 -63.31 115.56 C-58.88 123.41 -49.56 128.1 -41.17 130.53 C-30.07 132.93 -15 132.49 -5 127 C1.25 122.87 5.19 117.36 9 111 C14.94 111.41 18.77 114.08 23.56 117.31 C24.68 118.04 24.68 118.04 25.81 118.79 C33.56 123.91 33.56 123.91 37 127 C37 127.66 37 128.32 37 129 C37.66 129 38.32 129 39 129 C36.05 141.44 24.52 152.38 14 159 C-6.53 170.17 -34.57 171.2 -56.87 164.96 C-74.93 159.51 -91.9 148.34 -101.85 131.95 C-103.37 129.01 -104.73 126.06 -106 123 C-106.3 122.28 -106.61 121.55 -106.92 120.8 C-107.76 118.56 -108.4 116.32 -109 114 C-109.28 112.99 -109.56 111.98 -109.84 110.94 C-115.3 87.47 -114.05 60.02 -104 38 C-103.59 37.08 -103.19 36.16 -102.77 35.21 C-95.31 19.99 -80.72 7.11 -65 1 C-44.18 -5.42 -20.85 -7.34 0 0 Z " fill="#FAFCFC" transform="translate(1028,260)"/>
<path d="M0 0 C5.66 -0.02 11.32 -0.04 16.98 -0.05 C18.91 -0.06 20.83 -0.07 22.76 -0.08 C25.52 -0.09 28.29 -0.09 31.05 -0.1 C32.35 -0.11 32.35 -0.11 33.67 -0.11 C39.77 -0.11 39.77 -0.11 42 1 C42 1.57 42 2.15 42.01 2.74 C42.07 16.74 42.14 30.74 42.24 44.73 C42.28 51.5 42.32 58.27 42.35 65.04 C42.37 71.58 42.41 78.11 42.46 84.65 C42.48 87.14 42.49 89.63 42.5 92.12 C42.51 95.62 42.54 99.11 42.57 102.61 C42.57 103.63 42.56 104.65 42.56 105.71 C42.66 113.14 43.53 119.82 48.19 125.81 C56.11 131.97 64.08 133.66 74 133 C82.34 131.76 89.41 128.37 95 122 C95.68 121.32 96.36 120.64 97.06 119.94 C103.3 110.48 104.13 99.22 104.21 88.21 C104.22 87.25 104.23 86.3 104.24 85.31 C104.27 82.17 104.29 79.02 104.32 75.88 C104.34 73.69 104.36 71.5 104.38 69.32 C104.43 63.58 104.48 57.83 104.53 52.09 C104.58 46.22 104.64 40.36 104.69 34.49 C104.8 23 104.9 11.5 105 0 C110.66 -0.02 116.32 -0.04 121.98 -0.05 C123.91 -0.06 125.83 -0.07 127.76 -0.08 C130.52 -0.09 133.29 -0.09 136.05 -0.1 C137.35 -0.11 137.35 -0.11 138.67 -0.11 C144.77 -0.11 144.77 -0.11 147 1 C147.02 22.37 147.04 43.73 147.05 65.1 C147.06 75.02 147.06 84.94 147.08 94.86 C147.09 103.5 147.09 112.14 147.09 120.78 C147.1 125.36 147.1 129.94 147.11 134.52 C147.11 138.83 147.11 143.13 147.11 147.44 C147.11 149.02 147.12 150.61 147.12 152.19 C147.12 154.35 147.12 156.5 147.12 158.65 C147.12 160.47 147.12 160.47 147.12 162.32 C147 165 147 165 146 166 C143.19 166.09 140.4 166.12 137.59 166.1 C136.75 166.1 135.91 166.09 135.04 166.09 C132.34 166.09 129.64 166.08 126.94 166.06 C125.11 166.06 123.29 166.05 121.46 166.05 C116.97 166.04 112.49 166.02 108 166 C106.8 163.59 106.8 161.9 106.68 159.21 C106.64 158.27 106.6 157.33 106.56 156.36 C106.52 155.37 106.48 154.39 106.44 153.38 C106.39 152.38 106.35 151.39 106.31 150.37 C106.2 147.91 106.1 145.46 106 143 C104.68 142.67 103.36 142.34 102 142 C101.78 142.87 101.57 143.73 101.34 144.62 C99.77 148.59 97.51 151.1 94.5 154 C93.69 154.78 93.69 154.78 92.86 155.59 C81.12 166.69 67.96 169.52 52.13 169.28 C36.44 168.78 23.49 164.43 12.05 153.3 C1.46 141.41 -0.16 125.25 -0.11 110.01 C-0.11 108.82 -0.11 107.62 -0.11 106.4 C-0.11 103.15 -0.11 99.9 -0.1 96.65 C-0.1 93.25 -0.09 89.85 -0.09 86.45 C-0.09 80.02 -0.08 73.59 -0.07 67.16 C-0.06 59.83 -0.06 52.51 -0.05 45.18 C-0.04 30.12 -0.02 15.06 0 0 Z " fill="#FAFCFC" transform="translate(407,259)"/>
<path d="M0 0 C6.01 -0.22 12.03 -0.39 18.04 -0.49 C20.09 -0.54 22.13 -0.6 24.18 -0.68 C27.12 -0.79 30.06 -0.84 33.01 -0.88 C33.92 -0.93 34.83 -0.97 35.76 -1.02 C38.45 -1.02 40.46 -0.91 43 0 C45.63 2.7 47.32 5.65 49 9 C49.33 9.61 49.66 10.22 50.01 10.85 C50.92 12.59 51.77 14.36 52.62 16.12 C56.58 24.23 60.75 32.22 64.96 40.19 C65.46 41.13 65.95 42.07 66.46 43.04 C67.12 44.3 67.12 44.3 67.8 45.57 C69 48.01 70.03 50.47 71 53 C73.36 53.43 73.36 53.43 76 53 C77.92 50.84 77.92 50.84 79.38 47.88 C79.97 46.77 80.57 45.67 81.19 44.54 C83.53 39.97 85.84 35.39 88.11 30.79 C90.54 25.87 93.13 21.04 95.72 16.21 C98.58 10.86 101.3 5.44 104 0 C109.78 -0.05 115.57 -0.09 121.35 -0.11 C123.32 -0.12 125.29 -0.13 127.26 -0.15 C130.08 -0.18 132.91 -0.19 135.74 -0.2 C136.62 -0.21 137.5 -0.22 138.41 -0.23 C139.23 -0.23 140.05 -0.23 140.9 -0.23 C141.62 -0.23 142.34 -0.24 143.08 -0.24 C145 0 145 0 148 2 C147.3 3.09 146.6 4.19 145.88 5.31 C141.67 12.05 138.01 19.09 134.29 26.11 C133.96 26.71 133.64 27.31 133.31 27.94 C132.98 28.56 132.66 29.17 132.32 29.81 C128.03 37.85 123.61 45.82 119.21 53.81 C117.24 57.38 115.29 60.96 113.35 64.54 C112.36 66.35 111.34 68.14 110.31 69.93 C109.75 70.9 109.2 71.87 108.62 72.88 C108.12 73.74 107.62 74.6 107.1 75.49 C105.83 78.38 105.53 79.88 106 83 C107.1 85.3 108.25 87.39 109.56 89.56 C110.39 90.98 111.21 92.4 112.04 93.82 C112.5 94.63 112.97 95.43 113.45 96.26 C116.57 101.76 119.52 107.36 122.5 112.94 C123.16 114.17 123.82 115.4 124.47 116.63 C129 125.11 133.5 133.6 137.99 142.09 C139.78 145.48 141.58 148.87 143.38 152.25 C143.7 152.86 144.02 153.47 144.35 154.09 C145.74 156.71 147.17 159.27 148.73 161.8 C150 164 150 164 150 166 C143.95 166.1 137.9 166.17 131.85 166.22 C129.79 166.24 127.73 166.27 125.67 166.3 C122.71 166.35 119.76 166.37 116.8 166.39 C115.42 166.42 115.42 166.42 114.01 166.45 C107.62 166.46 107.62 166.46 104.49 164.16 C102.57 161.38 101.06 158.49 99.62 155.44 C98.93 154.01 98.24 152.59 97.54 151.16 C97.15 150.36 96.76 149.56 96.35 148.73 C93.62 143.22 90.77 137.77 87.94 132.31 C87.36 131.2 86.78 130.08 86.19 128.93 C82.2 121.25 78.13 113.61 74 106 C73.01 106 72.02 106 71 106 C70.61 107.03 70.61 107.03 70.21 108.07 C68.84 111.4 67.27 114.61 65.66 117.82 C65.17 118.8 65.17 118.8 64.67 119.8 C63.62 121.91 62.56 124.02 61.5 126.12 C61.14 126.84 60.78 127.56 60.41 128.29 C56.06 136.98 51.69 145.65 47.19 154.25 C46.8 155 46.41 155.75 46.01 156.52 C45.03 158.36 44.02 160.18 43 162 C42.66 162.72 42.32 163.45 41.97 164.19 C38.67 167.22 34.83 166.49 30.52 166.39 C29.59 166.38 28.66 166.38 27.71 166.37 C24.74 166.35 21.78 166.3 18.81 166.25 C16.8 166.23 14.79 166.21 12.78 166.2 C7.86 166.15 2.93 166.08 -2 166 C-1.22 161.58 0.34 158.09 2.5 154.19 C2.85 153.54 3.2 152.89 3.57 152.22 C6.95 146.01 10.43 139.86 13.91 133.7 C16.12 129.79 18.27 125.85 20.41 121.89 C21.63 119.67 22.87 117.46 24.12 115.26 C28.45 107.65 32.63 100.02 36.4 92.11 C38 89 38 89 39.79 86.55 C41.44 84.28 42.48 82.77 43 80 C41.6 76.21 39.52 73.13 37.21 69.84 C34.52 65.74 32.31 61.33 30 57 C28.95 55.06 27.9 53.11 26.85 51.17 C26.33 50.19 25.8 49.22 25.26 48.21 C19.12 36.84 12.94 25.51 6.26 14.45 C5.79 13.67 5.32 12.89 4.84 12.09 C3.92 10.55 2.99 9.03 2.06 7.51 C0.98 5.71 -0.02 3.86 -1 2 C-0.67 1.34 -0.34 0.68 0 0 Z " fill="#FAFCFC" transform="translate(1088,259)"/>
<path d="M0 0 C0.03 1.09 0.05 2.17 0.08 3.29 C0.17 7.3 0.27 11.31 0.37 15.33 C0.42 17.07 0.46 18.8 0.5 20.54 C0.55 23.04 0.62 25.53 0.68 28.03 C0.7 28.81 0.72 29.59 0.73 30.4 C0.51 34 0.51 34 2 37 C3.37 37.12 4.75 37.17 6.12 37.19 C7.43 37.21 7.43 37.21 8.77 37.24 C10.2 37.26 10.2 37.26 11.65 37.28 C12.62 37.3 13.59 37.32 14.59 37.34 C17.71 37.4 20.82 37.45 23.94 37.5 C28.03 37.57 32.12 37.64 36.21 37.72 C37.64 37.74 37.64 37.74 39.09 37.76 C40.41 37.78 40.41 37.78 41.75 37.81 C42.91 37.83 42.91 37.83 44.1 37.85 C46 38 46 38 48 39 C48.02 43.4 48.04 47.79 48.05 52.19 C48.06 53.69 48.07 55.18 48.08 56.68 C48.09 58.83 48.09 60.97 48.1 63.12 C48.1 64.41 48.11 65.71 48.11 67.04 C48 70 48 70 47 71 C45.56 71.09 44.11 71.12 42.66 71.11 C41.74 71.11 40.82 71.11 39.87 71.11 C38.87 71.11 37.87 71.1 36.84 71.1 C35.31 71.1 35.31 71.1 33.75 71.09 C30.48 71.09 27.21 71.08 23.94 71.06 C21.73 71.06 19.51 71.05 17.3 71.05 C11.87 71.04 6.43 71.02 1 71 C0.95 80.98 0.92 90.96 0.9 100.94 C0.89 105.57 0.87 110.21 0.85 114.84 C0.83 119.33 0.82 123.81 0.81 128.29 C0.81 129.99 0.8 131.69 0.79 133.39 C0.73 142.43 0.84 151.16 3 160 C3.15 160.73 3.31 161.47 3.46 162.22 C3.83 164.14 3.83 164.14 5.62 165.06 C6.41 165.37 7.19 165.68 8 166 C8.95 166.54 9.9 167.07 10.88 167.62 C19.15 171.05 28.28 169.61 36.38 166.5 C38.26 165.69 40.14 164.87 42 164 C42 164.66 42 165.32 42 166 C42.66 166 43.32 166 44 166 C45.29 169.79 46.57 173.58 47.85 177.37 C48.28 178.66 48.72 179.95 49.15 181.24 C49.78 183.09 50.41 184.95 51.03 186.8 C51.41 187.92 51.79 189.03 52.17 190.18 C53 193 53 193 53 196 C41.93 206.73 24.75 207.34 10.25 207.15 C-5.28 206.73 -17.75 201.83 -29 191 C-38.56 180.78 -41.29 167.23 -41.3 153.62 C-41.31 152.74 -41.32 151.86 -41.33 150.96 C-41.35 148.1 -41.37 145.23 -41.38 142.37 C-41.4 140.37 -41.41 138.37 -41.43 136.37 C-41.48 131.13 -41.51 125.89 -41.54 120.65 C-41.59 112.23 -41.66 103.82 -41.73 95.4 C-41.75 92.46 -41.77 89.52 -41.79 86.58 C-41.8 84.79 -41.81 83 -41.83 81.22 C-41.83 80.39 -41.83 79.57 -41.83 78.72 C-41.52 75.06 -41.52 75.06 -43 72 C-44.61 71.87 -46.23 71.8 -47.84 71.75 C-49.31 71.7 -49.31 71.7 -50.81 71.65 C-52.89 71.59 -54.97 71.54 -57.05 71.48 C-58.03 71.45 -59.02 71.41 -60.03 71.38 C-61.38 71.34 -61.38 71.34 -62.77 71.3 C-65 71 -65 71 -67 69 C-67.23 65.93 -67.23 65.93 -67.2 62.02 C-67.19 61.34 -67.19 60.65 -67.19 59.95 C-67.18 57.76 -67.15 55.57 -67.12 53.38 C-67.11 51.89 -67.11 50.41 -67.1 48.92 C-67.08 45.28 -67.04 41.64 -67 38 C-54.62 37.5 -54.62 37.5 -42 37 C-41.67 26.44 -41.34 15.88 -41 5 C-35.97 4.12 -30.93 3.24 -25.89 2.38 C-24.18 2.09 -22.47 1.79 -20.76 1.49 C-18.29 1.06 -15.83 0.63 -13.36 0.21 C-12.22 0.01 -12.22 0.01 -11.06 -0.2 C-7.1 -0.86 -3.88 -1.13 0 0 Z " fill="#FAFCFC" transform="translate(843,221)"/>
<path d="M0 0 C9.42 7.29 14.19 20.33 15.84 31.75 C18.07 70.81 18.07 70.81 5.84 85.75 C3.34 88.06 0.72 89.94 -2.16 91.75 C-3.05 92.35 -3.93 92.95 -4.85 93.56 C-13.13 97.81 -26.53 96.93 -35.41 95.07 C-44.08 91.8 -50.93 86.06 -55.72 78.19 C-63.33 60 -63.95 34.97 -57.1 16.44 C-52.48 6.48 -46.23 0.41 -35.96 -3.41 C-24.02 -6.99 -10.94 -6.33 0 0 Z " fill="#020429" transform="translate(697.16015625,296.25)"/>
<path d="M0 0 C2.97 0 5.94 0 9 0 C9 163.68 9 327.36 9 496 C6.03 496 3.06 496 0 496 C0 332.32 0 168.64 0 0 Z " fill="#EEEFF0" transform="translate(1271,0)"/>
<path d="M0 0 C6.77 5.3 10.63 15.94 11.95 24.31 C11.95 26.62 11.95 28.93 11.95 31.31 C-10.82 31.31 -33.59 31.31 -57.05 31.31 C-55.96 20.46 -53.38 10.89 -45.23 3.19 C-32.45 -6.68 -13.99 -7.75 0 0 Z " fill="#020429" transform="translate(1017.046875,292.6875)"/>
<path d="M0 0 C0.99 0 1.98 0 3 0 C3 163.68 3 327.36 3 496 C2.01 496 1.02 496 0 496 C0 332.32 0 168.64 0 0 Z " fill="#665096" transform="translate(1277,0)"/>
</svg>
